# xmcd CD database file
#
# Track frame offsets:
#	150
#	13033
#	34354
#	49032
#	62512
#	88871
#	108695
#	119881
#	137458
#	171706
#	186887
#	199606
#	211398
#	221065
#
# Disc length: 3042 seconds
#
# Revision: 2
# Processed by: cddbd v1.4PL0 Copyright (c) Steve Scherf et al.
# Submitted via: CDex 1.51
#
DISCID=dc0be00e
DTITLE=Various Artist - Back To Blues  Disk 1
DYEAR=1990
DGENRE=Blues
TTITLE0=I'm Your Hoochie Coochie Man (Muddy Waters)
TTITLE1=Stormy Monday (Alexis Korners All Star)
TTITLE2=Sugar Mama (John Lee Hooker)
TTITLE3=Moanin' At Midnight (Howlin' Wolf)
TTITLE4=Mean Old World (Chuck Berry)
TTITLE5=When I Get Home (Michael Bloomfield)
TTITLE6=The Story Of Bo Diddley (Bo Diddley)
TTITLE7=Little Red Rooster (Howlin' Wolf)
TTITLE8=Love Like A Man (Ten Years After)
TTITLE9=Big Car Blues (Lightnin' Hopkins)
TTITLE10=I'm A Man (Bo Diddley)
TTITLE11=Bring It On Home (Sonny Boy Williamson)
TTITLE12=That's Enough Of That Stuff (The Fabulous Thunderbirds)
TTITLE13=Available Space (Leo Kottke)
EXTD=YEAR: 1990
EXTT0=
EXTT1=
EXTT2=
EXTT3=
EXTT4=
EXTT5=
EXTT6=
EXTT7=
EXTT8=
EXTT9=
EXTT10=
EXTT11=
EXTT12=
EXTT13=
PLAYORDER=
